<?xml version="1.0" encoding="UTF-8" standalone="no"?>
<svg
   width="32"
   height="32"
   viewBox="0 0 20 20"
   version="1.1"
   id="svg4"
   sodipodi:docname="FluentCube20Filled.svg"
   inkscape:version="1.2.2 (b0a8486541, 2022-12-01)"
   xmlns:inkscape="http://www.inkscape.org/namespaces/inkscape"
   xmlns:sodipodi="http://sodipodi.sourceforge.net/DTD/sodipodi-0.dtd"
   xmlns="http://www.w3.org/2000/svg"
   xmlns:svg="http://www.w3.org/2000/svg">
  <defs
     id="defs8" />
  <sodipodi:namedview
     id="namedview6"
     pagecolor="#ffffff"
     bordercolor="#666666"
     borderopacity="1.0"
     inkscape:showpageshadow="2"
     inkscape:pageopacity="0.0"
     inkscape:pagecheckerboard="0"
     inkscape:deskcolor="#d1d1d1"
     showgrid="false"
     inkscape:zoom="25.78125"
     inkscape:cx="16"
     inkscape:cy="16.038788"
     inkscape:window-width="1920"
     inkscape:window-height="1004"
     inkscape:window-x="0"
     inkscape:window-y="0"
     inkscape:window-maximized="1"
     inkscape:current-layer="svg4" />
  <path
     fill="currentColor"
     d="M8.7 2.48a3.5 3.5 0 0 1 2.6 0l5.757 2.304c.57.227.943.779.943 1.392v7.646a1.5 1.5 0 0 1-.943 1.393L11.3 17.518a3.5 3.5 0 0 1-2.6 0l-5.757-2.303A1.5 1.5 0 0 1 2 13.822V6.176a1.5 1.5 0 0 1 .943-1.392L8.7 2.48ZM5.703 6.043a.5.5 0 1 0-.406.914L9.5 8.824V13.5a.5.5 0 0 0 1 0V8.824l4.203-1.868a.5.5 0 1 0-.406-.914L10 7.952l-4.297-1.91Z"
     id="path2"
     style="fill:#ff6600" />
</svg>
